<svg xmlns="http://www.w3.org/2000/svg" xmlns:xlink="http://www.w3.org/1999/xlink" width="500" zoomAndPan="magnify" viewBox="0 0 375 374.999991" height="500" preserveAspectRatio="xMidYMid meet" version="1.0"><defs><g/><clipPath id="id1"><path d="M 133.816406 85.890625 L 241.066406 85.890625 L 241.066406 195.390625 L 133.816406 195.390625 Z M 133.816406 85.890625 " clip-rule="nonzero"/></clipPath></defs><rect x="-37.5" width="450" fill="#ffffff" y="-37.499999" height="449.999989" fill-opacity="1"/><rect x="-37.5" width="450" fill="#f8f6ea" y="-37.499999" height="449.999989" fill-opacity="1"/><rect x="-37.5" width="450" fill="#ffffff" y="-37.499999" height="449.999989" fill-opacity="1"/><rect x="-37.5" width="450" fill="#f8f6ea" y="-37.499999" height="449.999989" fill-opacity="1"/><g clip-path="url(#id1)"><path fill="#545454" d="M 241.0625 139.363281 L 241.0625 85.925781 L 133.816406 85.925781 L 133.816406 193.09375 L 170.769531 193.09375 L 170.769531 192.253906 L 171.015625 191.253906 C 162.167969 189.0625 155.042969 185.3125 149.839844 180.113281 C 134.957031 165.242188 136.378906 138.765625 136.75 134.183594 C 139.84375 133.933594 152.933594 133.207031 165.691406 137.339844 C 164.070312 141.722656 163.011719 146.480469 163.011719 151.441406 C 163.011719 163.898438 169.660156 175.066406 175.234375 182.242188 C 181.25 189.984375 187.171875 194.730469 187.417969 194.929688 L 187.945312 195.347656 L 188.472656 194.929688 C 188.722656 194.730469 194.644531 189.984375 200.660156 182.242188 C 206.234375 175.066406 212.878906 163.898438 212.878906 151.441406 C 212.878906 146.480469 211.824219 141.722656 210.203125 137.339844 C 222.960938 133.207031 236.050781 133.933594 239.144531 134.183594 C 239.515625 138.761719 240.945312 165.230469 226.054688 180.113281 C 220.851562 185.3125 213.726562 189.0625 204.875 191.253906 L 204.914062 191.40625 L 204.109375 191.40625 L 204.109375 193.09375 L 241.0625 193.09375 L 241.0625 140.917969 C 241.066406 140.375 241.066406 139.855469 241.0625 139.363281 Z M 148.644531 181.308594 C 153.027344 185.6875 158.699219 189.074219 165.542969 191.40625 L 135.503906 191.40625 L 135.503906 150.996094 C 136.652344 160.003906 139.863281 172.53125 148.644531 181.308594 Z M 211.191406 151.441406 C 211.191406 172.472656 191.449219 190.191406 187.945312 193.167969 C 184.441406 190.195312 164.703125 172.488281 164.703125 151.441406 C 164.703125 146.710938 165.703125 142.148438 167.289062 137.882812 C 172.867188 139.878906 178.300781 142.855469 182.710938 147.265625 C 183.027344 147.582031 183.347656 147.910156 183.660156 148.25 L 186.910156 152.40625 C 181.453125 160.898438 179.347656 170.976562 178.589844 178.664062 L 180.269531 178.828125 C 181.203125 169.382812 184.203125 156.234375 193.179688 147.265625 C 197.59375 142.855469 203.023438 139.878906 208.601562 137.882812 C 210.191406 142.148438 211.191406 146.710938 211.191406 151.441406 Z M 200.699219 139.589844 C 198.714844 140.6875 196.785156 141.957031 194.964844 143.414062 C 192.625 132.574219 186.015625 123.175781 180.578125 116.945312 C 181.683594 115.71875 182.738281 114.617188 183.699219 113.660156 L 183.726562 113.683594 C 188.449219 118.386719 196.917969 127.996094 200.699219 139.589844 Z M 184.90625 112.476562 C 186.273438 111.164062 187.347656 110.222656 187.945312 109.714844 C 190.5625 111.9375 202.246094 122.386719 207.984375 136.304688 C 206.050781 137.003906 204.109375 137.824219 202.210938 138.785156 C 198.472656 127.570312 190.753906 118.300781 184.90625 112.476562 Z M 193.496094 144.652344 C 192.980469 145.109375 192.476562 145.578125 191.984375 146.070312 C 190.464844 147.589844 189.113281 149.222656 187.902344 150.933594 L 187.3125 150.175781 C 187.214844 138.535156 181.445312 129.128906 176.25 122.144531 C 177.324219 120.738281 178.402344 119.429688 179.449219 118.222656 C 184.875 124.472656 191.429688 133.886719 193.496094 144.652344 Z M 185.523438 147.894531 L 184.96875 147.179688 L 184.921875 147.128906 C 184.589844 146.765625 184.246094 146.410156 183.90625 146.070312 C 182.464844 144.628906 180.917969 143.339844 179.304688 142.183594 C 178.160156 137.28125 175.996094 132.371094 172.703125 127.199219 C 173.511719 125.933594 174.347656 124.71875 175.191406 123.558594 C 179.800781 129.8125 184.769531 137.992188 185.523438 147.894531 Z M 177.191406 140.769531 C 174.210938 138.902344 171.058594 137.441406 167.910156 136.304688 C 168.996094 133.667969 170.300781 131.152344 171.714844 128.796875 C 174.265625 132.917969 176.070312 136.863281 177.191406 140.769531 Z M 239.375 191.40625 L 210.347656 191.40625 C 217.195312 189.074219 222.863281 185.6875 227.25 181.308594 C 234.207031 174.355469 237.667969 165.042969 239.375 156.996094 Z M 239.375 132.503906 C 237.324219 132.324219 230.65625 131.890625 222.421875 132.925781 C 218.601562 133.40625 214.132812 134.261719 209.585938 135.753906 C 207.152344 129.800781 203.742188 124.609375 200.65625 120.640625 C 194.644531 112.902344 188.722656 108.152344 188.472656 107.957031 L 187.945312 107.535156 L 187.417969 107.957031 C 187.171875 108.15625 181.25 112.902344 175.234375 120.640625 C 172.148438 124.609375 168.742188 129.800781 166.308594 135.753906 C 161.757812 134.261719 157.292969 133.40625 153.46875 132.925781 C 143.738281 131.703125 136.191406 132.53125 135.875 132.566406 L 135.503906 132.609375 L 135.503906 87.613281 L 239.375 87.613281 Z M 239.375 132.503906 " fill-opacity="1" fill-rule="nonzero"/></g><g fill="#545454" fill-opacity="1"><g transform="translate(56.172965, 249.782814)"><g><path d="M 23.890625 -32.375 L 30.828125 -32.375 L 30.828125 0 L 23.890625 0 L 23.890625 -13.9375 L 9.046875 -13.9375 L 9.046875 0 L 2.140625 0 L 2.140625 -32.375 L 9.046875 -32.375 L 9.046875 -20.234375 L 23.890625 -20.234375 Z M 23.890625 -32.375 "/></g></g></g><g fill="#545454" fill-opacity="1"><g transform="translate(90.973378, 249.782814)"><g><path d="M 16.390625 -22.65625 L 22.703125 -22.65625 L 22.703125 0 L 17.3125 0 L 16.390625 -1.734375 C 15.660156 -1.210938 14.832031 -0.789062 13.90625 -0.46875 C 12.976562 -0.15625 11.984375 0 10.921875 0 C 10.097656 0 9.160156 -0.117188 8.109375 -0.359375 C 7.054688 -0.609375 6.070312 -1.066406 5.15625 -1.734375 C 4.25 -2.398438 3.484375 -3.328125 2.859375 -4.515625 C 2.234375 -5.703125 1.921875 -7.242188 1.921875 -9.140625 L 1.921875 -22.65625 L 8.265625 -22.65625 L 8.265625 -9.359375 C 8.265625 -8.660156 8.378906 -8.066406 8.609375 -7.578125 C 8.835938 -7.085938 9.140625 -6.695312 9.515625 -6.40625 C 9.898438 -6.125 10.335938 -5.914062 10.828125 -5.78125 C 11.316406 -5.644531 11.816406 -5.578125 12.328125 -5.578125 C 12.722656 -5.578125 13.15625 -5.644531 13.625 -5.78125 C 14.101562 -5.914062 14.546875 -6.132812 14.953125 -6.4375 C 15.367188 -6.738281 15.710938 -7.132812 15.984375 -7.625 C 16.253906 -8.113281 16.390625 -8.691406 16.390625 -9.359375 Z M 16.390625 -22.65625 "/></g></g></g><g fill="#545454" fill-opacity="1"><g transform="translate(117.598916, 249.782814)"><g><path d="M 27.265625 -22.65625 C 28.085938 -22.65625 28.96875 -22.515625 29.90625 -22.234375 C 30.851562 -21.960938 31.726562 -21.476562 32.53125 -20.78125 C 33.34375 -20.082031 34.003906 -19.125 34.515625 -17.90625 C 35.035156 -16.6875 35.296875 -15.132812 35.296875 -13.25 L 35.296875 0 L 29 0 L 29 -12.109375 C 29 -13.015625 28.898438 -13.785156 28.703125 -14.421875 C 28.503906 -15.066406 28.238281 -15.585938 27.90625 -15.984375 C 27.570312 -16.378906 27.179688 -16.660156 26.734375 -16.828125 C 26.296875 -16.992188 25.847656 -17.078125 25.390625 -17.078125 C 24.960938 -17.078125 24.535156 -17 24.109375 -16.84375 C 23.679688 -16.695312 23.300781 -16.441406 22.96875 -16.078125 C 22.632812 -15.710938 22.367188 -15.207031 22.171875 -14.5625 C 21.972656 -13.925781 21.875 -13.125 21.875 -12.15625 L 21.875 0 L 15.578125 0 L 15.578125 -12.109375 C 15.578125 -13.960938 15.253906 -15.253906 14.609375 -15.984375 C 13.972656 -16.710938 13.046875 -17.078125 11.828125 -17.078125 C 10.941406 -17.078125 10.148438 -16.664062 9.453125 -15.84375 C 8.753906 -15.019531 8.40625 -13.742188 8.40625 -12.015625 L 8.40625 0 L 2.09375 0 L 2.09375 -22.65625 L 7.484375 -22.65625 L 8.40625 -20.546875 C 9.101562 -21.222656 9.914062 -21.742188 10.84375 -22.109375 C 11.769531 -22.472656 12.769531 -22.65625 13.84375 -22.65625 C 14.382812 -22.65625 14.957031 -22.597656 15.5625 -22.484375 C 16.175781 -22.378906 16.769531 -22.191406 17.34375 -21.921875 C 17.925781 -21.648438 18.484375 -21.289062 19.015625 -20.84375 C 19.554688 -20.40625 20.039062 -19.851562 20.46875 -19.1875 C 20.832031 -19.757812 21.269531 -20.265625 21.78125 -20.703125 C 22.300781 -21.148438 22.863281 -21.519531 23.46875 -21.8125 C 24.082031 -22.101562 24.71875 -22.316406 25.375 -22.453125 C 26.03125 -22.585938 26.660156 -22.65625 27.265625 -22.65625 Z M 27.265625 -22.65625 "/></g></g></g><g fill="#545454" fill-opacity="1"><g transform="translate(156.692279, 249.782814)"><g><path d="M 25.765625 -22.65625 L 25.765625 0 L 20.328125 0 L 19.6875 -2.421875 C 18.800781 -1.234375 17.738281 -0.441406 16.5 -0.046875 C 15.269531 0.347656 13.988281 0.546875 12.65625 0.546875 C 11.039062 0.546875 9.554688 0.234375 8.203125 -0.390625 C 6.847656 -1.015625 5.664062 -1.863281 4.65625 -2.9375 C 3.65625 -4.019531 2.875 -5.285156 2.3125 -6.734375 C 1.75 -8.179688 1.46875 -9.726562 1.46875 -11.375 C 1.46875 -13.019531 1.75 -14.5625 2.3125 -16 C 2.875 -17.445312 3.65625 -18.710938 4.65625 -19.796875 C 5.664062 -20.878906 6.847656 -21.734375 8.203125 -22.359375 C 9.554688 -22.984375 11.039062 -23.296875 12.65625 -23.296875 C 14.113281 -23.296875 15.453125 -23.066406 16.671875 -22.609375 C 17.890625 -22.148438 18.894531 -21.421875 19.6875 -20.421875 L 20.328125 -22.65625 Z M 19.453125 -11.28125 C 19.453125 -12.46875 19.289062 -13.460938 18.96875 -14.265625 C 18.65625 -15.078125 18.234375 -15.734375 17.703125 -16.234375 C 17.171875 -16.734375 16.546875 -17.097656 15.828125 -17.328125 C 15.109375 -17.554688 14.335938 -17.671875 13.515625 -17.671875 C 12.691406 -17.671875 11.921875 -17.503906 11.203125 -17.171875 C 10.492188 -16.835938 9.863281 -16.390625 9.3125 -15.828125 C 8.769531 -15.265625 8.34375 -14.59375 8.03125 -13.8125 C 7.726562 -13.039062 7.578125 -12.226562 7.578125 -11.375 C 7.578125 -10.488281 7.726562 -9.664062 8.03125 -8.90625 C 8.34375 -8.144531 8.769531 -7.484375 9.3125 -6.921875 C 9.863281 -6.359375 10.492188 -5.90625 11.203125 -5.5625 C 11.921875 -5.226562 12.691406 -5.0625 13.515625 -5.0625 C 15.160156 -5.0625 16.550781 -5.570312 17.6875 -6.59375 C 18.832031 -7.613281 19.421875 -9.175781 19.453125 -11.28125 Z M 19.453125 -11.28125 "/></g></g></g><g fill="#545454" fill-opacity="1"><g transform="translate(186.286353, 249.782814)"><g><path d="M 13.84375 -22.65625 C 14.695312 -22.65625 15.640625 -22.53125 16.671875 -22.28125 C 17.703125 -22.039062 18.675781 -21.582031 19.59375 -20.90625 C 20.507812 -20.238281 21.28125 -19.3125 21.90625 -18.125 C 22.53125 -16.9375 22.84375 -15.398438 22.84375 -13.515625 L 22.84375 0 L 16.484375 0 L 16.484375 -13.296875 C 16.484375 -13.992188 16.367188 -14.582031 16.140625 -15.0625 C 15.910156 -15.550781 15.601562 -15.941406 15.21875 -16.234375 C 14.84375 -16.523438 14.410156 -16.738281 13.921875 -16.875 C 13.441406 -17.007812 12.957031 -17.078125 12.46875 -17.078125 C 12.070312 -17.078125 11.632812 -17.007812 11.15625 -16.875 C 10.6875 -16.738281 10.242188 -16.515625 9.828125 -16.203125 C 9.421875 -15.898438 9.082031 -15.503906 8.8125 -15.015625 C 8.539062 -14.535156 8.40625 -13.960938 8.40625 -13.296875 L 8.40625 0 L 2.09375 0 L 2.09375 -22.65625 L 7.484375 -22.65625 L 8.40625 -20.921875 C 9.132812 -21.429688 9.953125 -21.847656 10.859375 -22.171875 C 11.773438 -22.492188 12.769531 -22.65625 13.84375 -22.65625 Z M 13.84375 -22.65625 "/></g></g></g><g fill="#545454" fill-opacity="1"><g transform="translate(212.820553, 249.782814)"><g><path d="M 3.84375 -24.578125 C 3.84375 -26.160156 4.078125 -27.519531 4.546875 -28.65625 C 5.015625 -29.800781 5.644531 -30.742188 6.4375 -31.484375 C 7.226562 -32.234375 8.140625 -32.78125 9.171875 -33.125 C 10.210938 -33.476562 11.3125 -33.65625 12.46875 -33.65625 C 13.164062 -33.65625 13.863281 -33.59375 14.5625 -33.46875 C 15.269531 -33.351562 15.972656 -33.171875 16.671875 -32.921875 L 16.171875 -28.3125 L 14.65625 -28.546875 C 14.414062 -28.578125 14.195312 -28.597656 14 -28.609375 C 13.800781 -28.628906 13.609375 -28.640625 13.421875 -28.640625 C 12.265625 -28.640625 11.421875 -28.359375 10.890625 -27.796875 C 10.359375 -27.234375 10.09375 -26.414062 10.09375 -25.34375 L 10.09375 -22.65625 L 16.171875 -22.65625 L 16.171875 -17.03125 L 10.09375 -17.03125 L 10.09375 0 L 3.84375 0 L 3.84375 -17.03125 L 0.875 -17.03125 L 0.875 -20.375 L 3.84375 -22.65625 Z M 3.84375 -24.578125 "/></g></g></g><g fill="#545454" fill-opacity="1"><g transform="translate(231.95627, 249.782814)"><g><path d="M 2.234375 -33.390625 L 8.546875 -33.390625 L 8.546875 0 L 2.234375 0 Z M 2.234375 -33.390625 "/></g></g></g><g fill="#545454" fill-opacity="1"><g transform="translate(244.150185, 249.782814)"><g><path d="M 16.390625 -22.65625 L 22.703125 -22.65625 L 22.703125 0 L 17.3125 0 L 16.390625 -1.734375 C 15.660156 -1.210938 14.832031 -0.789062 13.90625 -0.46875 C 12.976562 -0.15625 11.984375 0 10.921875 0 C 10.097656 0 9.160156 -0.117188 8.109375 -0.359375 C 7.054688 -0.609375 6.070312 -1.066406 5.15625 -1.734375 C 4.25 -2.398438 3.484375 -3.328125 2.859375 -4.515625 C 2.234375 -5.703125 1.921875 -7.242188 1.921875 -9.140625 L 1.921875 -22.65625 L 8.265625 -22.65625 L 8.265625 -9.359375 C 8.265625 -8.660156 8.378906 -8.066406 8.609375 -7.578125 C 8.835938 -7.085938 9.140625 -6.695312 9.515625 -6.40625 C 9.898438 -6.125 10.335938 -5.914062 10.828125 -5.78125 C 11.316406 -5.644531 11.816406 -5.578125 12.328125 -5.578125 C 12.722656 -5.578125 13.15625 -5.644531 13.625 -5.78125 C 14.101562 -5.914062 14.546875 -6.132812 14.953125 -6.4375 C 15.367188 -6.738281 15.710938 -7.132812 15.984375 -7.625 C 16.253906 -8.113281 16.390625 -8.691406 16.390625 -9.359375 Z M 16.390625 -22.65625 "/></g></g></g><g fill="#545454" fill-opacity="1"><g transform="translate(270.775728, 249.782814)"><g><path d="M 16.4375 -11.875 C 18.113281 -10.6875 18.953125 -9 18.953125 -6.8125 C 18.953125 -5.800781 18.710938 -4.851562 18.234375 -3.96875 C 17.765625 -3.09375 17.117188 -2.316406 16.296875 -1.640625 C 15.484375 -0.972656 14.523438 -0.445312 13.421875 -0.0625 C 12.328125 0.3125 11.15625 0.5 9.90625 0.5 C 8.96875 0.5 8.046875 0.375 7.140625 0.125 C 6.242188 -0.113281 5.414062 -0.441406 4.65625 -0.859375 C 3.894531 -1.285156 3.234375 -1.796875 2.671875 -2.390625 C 2.109375 -2.984375 1.691406 -3.648438 1.421875 -4.390625 C 2.117188 -4.722656 2.894531 -5.09375 3.75 -5.5 C 4.601562 -5.914062 5.347656 -6.289062 5.984375 -6.625 C 6.253906 -6.164062 6.675781 -5.742188 7.25 -5.359375 C 7.832031 -4.984375 8.628906 -4.796875 9.640625 -4.796875 C 10.671875 -4.796875 11.429688 -5.035156 11.921875 -5.515625 C 12.410156 -6.003906 12.65625 -6.460938 12.65625 -6.890625 C 12.65625 -7.203125 12.484375 -7.484375 12.140625 -7.734375 C 11.804688 -7.992188 11.425781 -8.203125 11 -8.359375 C 10.394531 -8.597656 9.894531 -8.722656 9.5 -8.734375 C 9.101562 -8.753906 8.644531 -8.84375 8.125 -9 C 6.476562 -9.394531 5.222656 -9.921875 4.359375 -10.578125 C 3.492188 -11.234375 2.863281 -11.894531 2.46875 -12.5625 C 2.070312 -13.226562 1.847656 -13.863281 1.796875 -14.46875 C 1.753906 -15.082031 1.734375 -15.570312 1.734375 -15.9375 C 1.734375 -16.914062 1.945312 -17.84375 2.375 -18.71875 C 2.800781 -19.601562 3.382812 -20.375 4.125 -21.03125 C 4.875 -21.6875 5.742188 -22.210938 6.734375 -22.609375 C 7.722656 -23.003906 8.78125 -23.203125 9.90625 -23.203125 C 10.851562 -23.203125 11.753906 -23.0625 12.609375 -22.78125 C 13.460938 -22.507812 14.238281 -22.128906 14.9375 -21.640625 C 15.632812 -21.160156 16.234375 -20.582031 16.734375 -19.90625 C 17.242188 -19.238281 17.617188 -18.492188 17.859375 -17.671875 L 12.96875 -16.03125 C 12.789062 -16.582031 12.414062 -17.023438 11.84375 -17.359375 C 11.28125 -17.691406 10.679688 -17.859375 10.046875 -17.859375 C 9.410156 -17.859375 8.894531 -17.644531 8.5 -17.21875 C 8.101562 -16.789062 7.90625 -16.363281 7.90625 -15.9375 C 7.90625 -15.414062 8.09375 -15.007812 8.46875 -14.71875 C 8.851562 -14.4375 9.273438 -14.234375 9.734375 -14.109375 C 10.066406 -14.046875 10.390625 -13.992188 10.703125 -13.953125 C 11.023438 -13.910156 11.335938 -13.859375 11.640625 -13.796875 C 12.710938 -13.546875 13.632812 -13.269531 14.40625 -12.96875 C 15.1875 -12.664062 15.863281 -12.300781 16.4375 -11.875 Z M 16.4375 -11.875 "/></g></g></g><g fill="#545454" fill-opacity="1"><g transform="translate(292.834305, 249.782814)"><g><path d="M 14.65625 -23.296875 C 16.15625 -23.296875 17.550781 -22.984375 18.84375 -22.359375 C 20.132812 -21.734375 21.25 -20.878906 22.1875 -19.796875 C 23.132812 -18.710938 23.875 -17.445312 24.40625 -16 C 24.9375 -14.5625 25.203125 -13.019531 25.203125 -11.375 L 25.203125 0 L 19.046875 0 L 19.046875 -4.15625 C 19.046875 -5.3125 19.050781 -6.503906 19.0625 -7.734375 C 19.082031 -8.972656 19.09375 -10.035156 19.09375 -10.921875 C 19.09375 -11.765625 18.953125 -12.597656 18.671875 -13.421875 C 18.398438 -14.242188 18.019531 -14.96875 17.53125 -15.59375 C 17.050781 -16.21875 16.484375 -16.71875 15.828125 -17.09375 C 15.171875 -17.476562 14.476562 -17.671875 13.75 -17.671875 C 13.050781 -17.671875 12.378906 -17.539062 11.734375 -17.28125 C 11.097656 -17.03125 10.535156 -16.648438 10.046875 -16.140625 C 9.554688 -15.640625 9.164062 -15.007812 8.875 -14.25 C 8.59375 -13.488281 8.453125 -12.59375 8.453125 -11.5625 L 8.453125 0 L 2.09375 0 L 2.09375 -33.34375 L 8.453125 -33.34375 L 8.453125 -20.921875 C 9.242188 -21.679688 10.148438 -22.265625 11.171875 -22.671875 C 12.191406 -23.085938 13.351562 -23.296875 14.65625 -23.296875 Z M 14.65625 -23.296875 "/></g></g></g><g fill="#545454" fill-opacity="1"><g transform="translate(120.505836, 285.770753)"><g><path d="M 6.15625 -2.3125 C 6.15625 -1.96875 6.082031 -1.644531 5.9375 -1.34375 C 5.800781 -1.039062 5.597656 -0.78125 5.328125 -0.5625 C 4.785156 -0.113281 4.097656 0.109375 3.265625 0.109375 C 2.617188 0.109375 2.03125 -0.0195312 1.5 -0.28125 C 0.96875 -0.550781 0.582031 -0.910156 0.34375 -1.359375 L 1.375 -1.890625 C 1.53125 -1.609375 1.773438 -1.390625 2.109375 -1.234375 C 2.441406 -1.085938 2.828125 -1.015625 3.265625 -1.015625 C 4.390625 -1.015625 4.953125 -1.445312 4.953125 -2.3125 C 4.953125 -2.476562 4.921875 -2.617188 4.859375 -2.734375 C 4.804688 -2.847656 4.722656 -2.957031 4.609375 -3.0625 C 4.328125 -3.289062 3.828125 -3.5 3.109375 -3.6875 C 2.671875 -3.789062 2.300781 -3.910156 2 -4.046875 C 1.695312 -4.179688 1.445312 -4.335938 1.25 -4.515625 C 0.757812 -4.910156 0.515625 -5.429688 0.515625 -6.078125 C 0.515625 -6.398438 0.578125 -6.703125 0.703125 -6.984375 C 0.828125 -7.273438 1.007812 -7.523438 1.25 -7.734375 C 1.488281 -7.941406 1.765625 -8.097656 2.078125 -8.203125 C 2.398438 -8.304688 2.757812 -8.359375 3.15625 -8.359375 C 3.71875 -8.359375 4.234375 -8.25 4.703125 -8.03125 C 5.179688 -7.8125 5.546875 -7.503906 5.796875 -7.109375 L 4.859375 -6.53125 C 4.628906 -6.800781 4.367188 -6.992188 4.078125 -7.109375 C 3.785156 -7.222656 3.476562 -7.28125 3.15625 -7.28125 C 2.914062 -7.28125 2.695312 -7.238281 2.5 -7.15625 C 2.3125 -7.082031 2.148438 -6.988281 2.015625 -6.875 C 1.910156 -6.789062 1.832031 -6.675781 1.78125 -6.53125 C 1.726562 -6.394531 1.703125 -6.253906 1.703125 -6.109375 C 1.703125 -6.003906 1.71875 -5.898438 1.75 -5.796875 C 1.78125 -5.691406 1.851562 -5.582031 1.96875 -5.46875 C 2.09375 -5.351562 2.265625 -5.242188 2.484375 -5.140625 C 2.710938 -5.035156 3.019531 -4.9375 3.40625 -4.84375 C 3.875 -4.71875 4.265625 -4.585938 4.578125 -4.453125 C 4.898438 -4.316406 5.164062 -4.15625 5.375 -3.96875 C 5.894531 -3.550781 6.15625 -3 6.15625 -2.3125 Z M 6.15625 -2.3125 "/></g></g></g><g fill="#545454" fill-opacity="1"><g transform="translate(131.480518, 285.770753)"><g/></g></g><g fill="#545454" fill-opacity="1"><g transform="translate(138.74681, 285.770753)"><g><path d="M 5.6875 -8.234375 L 5.6875 -7.15625 L 1.859375 -7.15625 L 1.859375 -4.90625 L 5.265625 -4.90625 L 5.265625 -3.78125 L 1.859375 -3.78125 L 1.859375 -1.125 L 5.6875 -1.125 L 5.6875 0 L 0.65625 0 L 0.65625 -8.234375 Z M 5.6875 -8.234375 "/></g></g></g><g fill="#545454" fill-opacity="1"><g transform="translate(149.361116, 285.770753)"><g/></g></g><g fill="#545454" fill-opacity="1"><g transform="translate(156.62741, 285.770753)"><g><path d="M 7.453125 0 L 5.921875 0 L 3.34375 -3.5625 L 1.890625 -3.5625 L 1.890625 0 L 0.671875 0 L 0.671875 -8.234375 L 4.015625 -8.234375 C 4.347656 -8.234375 4.65625 -8.171875 4.9375 -8.046875 C 5.226562 -7.929688 5.476562 -7.769531 5.6875 -7.5625 C 5.90625 -7.351562 6.078125 -7.101562 6.203125 -6.8125 C 6.328125 -6.53125 6.390625 -6.226562 6.390625 -5.90625 C 6.390625 -5.632812 6.347656 -5.378906 6.265625 -5.140625 C 6.179688 -4.898438 6.0625 -4.679688 5.90625 -4.484375 C 5.757812 -4.296875 5.582031 -4.128906 5.375 -3.984375 C 5.164062 -3.835938 4.9375 -3.726562 4.6875 -3.65625 Z M 4.015625 -4.703125 C 4.179688 -4.703125 4.335938 -4.734375 4.484375 -4.796875 C 4.628906 -4.859375 4.753906 -4.941406 4.859375 -5.046875 C 4.960938 -5.160156 5.046875 -5.289062 5.109375 -5.4375 C 5.171875 -5.59375 5.203125 -5.753906 5.203125 -5.921875 C 5.203125 -6.097656 5.171875 -6.257812 5.109375 -6.40625 C 5.046875 -6.550781 4.960938 -6.679688 4.859375 -6.796875 C 4.753906 -6.910156 4.628906 -7 4.484375 -7.0625 C 4.335938 -7.125 4.179688 -7.15625 4.015625 -7.15625 L 1.890625 -7.15625 L 1.890625 -4.6875 Z M 4.015625 -4.703125 "/></g></g></g><g fill="#545454" fill-opacity="1"><g transform="translate(168.4856, 285.770753)"><g/></g></g><g fill="#545454" fill-opacity="1"><g transform="translate(175.751894, 285.770753)"><g><path d="M 5.6875 -8.234375 L 5.6875 -7.15625 L 1.859375 -7.15625 L 1.859375 -4.90625 L 5.265625 -4.90625 L 5.265625 -3.78125 L 1.859375 -3.78125 L 1.859375 -1.125 L 5.6875 -1.125 L 5.6875 0 L 0.65625 0 L 0.65625 -8.234375 Z M 5.6875 -8.234375 "/></g></g></g><g fill="#545454" fill-opacity="1"><g transform="translate(186.366202, 285.770753)"><g/></g></g><g fill="#545454" fill-opacity="1"><g transform="translate(193.632496, 285.770753)"><g><path d="M 7.75 -8.234375 L 7.75 0 L 6.515625 0 L 1.921875 -6.328125 L 1.921875 0 L 0.65625 0 L 0.65625 -8.234375 L 1.9375 -8.234375 L 6.53125 -1.890625 L 6.53125 -8.234375 Z M 7.75 -8.234375 "/></g></g></g><g fill="#545454" fill-opacity="1"><g transform="translate(206.292814, 285.770753)"><g/></g></g><g fill="#545454" fill-opacity="1"><g transform="translate(213.559108, 285.770753)"><g><path d="M 2.890625 -7.25 L 2.890625 -1 L 3.484375 -1 L 3.484375 0 L 1.0625 0 L 1.0625 -1 L 1.671875 -1 L 1.671875 -7.25 L 1.0625 -7.25 L 1.0625 -8.234375 L 3.484375 -8.234375 L 3.484375 -7.25 Z M 2.890625 -7.25 "/></g></g></g><g fill="#545454" fill-opacity="1"><g transform="translate(222.359905, 285.770753)"><g/></g></g><g fill="#545454" fill-opacity="1"><g transform="translate(229.626194, 285.770753)"><g><path d="M 2.296875 -7.15625 L 0.0625 -7.15625 L 0.0625 -8.234375 L 5.75 -8.234375 L 5.75 -7.15625 L 3.5 -7.15625 L 3.5 0 L 2.296875 0 Z M 2.296875 -7.15625 "/></g></g></g><g fill="#545454" fill-opacity="1"><g transform="translate(239.926619, 285.770753)"><g/></g></g><g fill="#545454" fill-opacity="1"><g transform="translate(247.192908, 285.770753)"><g><path d="M 3.015625 -3.859375 L 0.109375 -8.234375 L 1.5625 -8.234375 L 3.609375 -5.15625 L 5.671875 -8.234375 L 7.140625 -8.234375 L 4.234375 -3.859375 L 4.234375 0 L 3.015625 0 Z M 3.015625 -3.859375 "/></g></g></g></svg>